<mxfile host="app.diagrams.net" agent="Mozilla/5.0 (Windows NT 10.0; Win64; x64) AppleWebKit/537.36 (KHTML, like Gecko) Chrome/140.0.0.0 Safari/537.36" version="28.2.3">
  <diagram name="Page-1" id="KOW8-L6-WfWw_ilg5SVO">
    <mxGraphModel grid="1" page="1" gridSize="10" guides="1" tooltips="1" connect="1" arrows="1" fold="1" pageScale="1" pageWidth="850" pageHeight="1100" math="0" shadow="0">
      <root>
        <mxCell id="0" />
        <mxCell id="1" parent="0" />
        <mxCell id="KhBLa0-ySH2mKtJyZSr1-1" value="&lt;font style=&quot;font-size: 18px;&quot;&gt;Start&amp;nbsp;&lt;/font&gt;" style="rounded=1;whiteSpace=wrap;html=1;" vertex="1" parent="1">
          <mxGeometry x="370" y="-950" width="110" height="30" as="geometry" />
        </mxCell>
        <mxCell id="KhBLa0-ySH2mKtJyZSr1-2" value="&lt;font style=&quot;font-size: 18px;&quot;&gt;Power ON System&lt;/font&gt;" style="rounded=1;whiteSpace=wrap;html=1;" vertex="1" parent="1">
          <mxGeometry x="370" y="-880" width="110" height="50" as="geometry" />
        </mxCell>
        <mxCell id="KhBLa0-ySH2mKtJyZSr1-3" value="&lt;font style=&quot;font-size: 18px;&quot;&gt;Read Temperature&amp;nbsp;&lt;/font&gt;" style="rounded=1;whiteSpace=wrap;html=1;" vertex="1" parent="1">
          <mxGeometry x="370" y="-790" width="110" height="50" as="geometry" />
        </mxCell>
        <mxCell id="KhBLa0-ySH2mKtJyZSr1-5" value="&lt;font style=&quot;font-size: 18px;&quot;&gt;Idle Condition&amp;nbsp;(Peltier &amp;amp; Fans&amp;nbsp;remain OFF)&lt;/font&gt;" style="rounded=1;whiteSpace=wrap;html=1;" vertex="1" parent="1">
          <mxGeometry x="500" y="-550" width="160" height="80" as="geometry" />
        </mxCell>
        <mxCell id="KhBLa0-ySH2mKtJyZSr1-6" value="&lt;font style=&quot;font-size: 18px;&quot;&gt;Temp &amp;gt; Threshold&lt;/font&gt;" style="rounded=1;whiteSpace=wrap;html=1;" vertex="1" parent="1">
          <mxGeometry x="130" y="-560" width="120" height="60" as="geometry" />
        </mxCell>
        <mxCell id="KhBLa0-ySH2mKtJyZSr1-7" value="&lt;font style=&quot;font-size: 18px;&quot;&gt;Temp &amp;gt; Threshold&lt;/font&gt;" style="rounded=1;whiteSpace=wrap;html=1;" vertex="1" parent="1">
          <mxGeometry x="270" y="-560" width="120" height="60" as="geometry" />
        </mxCell>
        <mxCell id="KhBLa0-ySH2mKtJyZSr1-8" value="&lt;font style=&quot;font-size: 18px;&quot;&gt;Keep Monitoring&amp;nbsp;&lt;/font&gt;&lt;div&gt;&lt;font size=&quot;3&quot;&gt;Temperature&amp;nbsp;&amp;nbsp;&lt;/font&gt;&lt;/div&gt;" style="rounded=1;whiteSpace=wrap;html=1;" vertex="1" parent="1">
          <mxGeometry x="385" y="-330" width="120" height="80" as="geometry" />
        </mxCell>
        <mxCell id="KhBLa0-ySH2mKtJyZSr1-9" value="&lt;font style=&quot;font-size: 18px;&quot;&gt;Turn ON Peltier&amp;nbsp;and Fans&lt;/font&gt;" style="rounded=1;whiteSpace=wrap;html=1;" vertex="1" parent="1">
          <mxGeometry x="130" y="-450" width="120" height="80" as="geometry" />
        </mxCell>
        <mxCell id="KhBLa0-ySH2mKtJyZSr1-10" value="&lt;font style=&quot;font-size: 18px;&quot;&gt;Turn ON carbon heating pads&lt;/font&gt;" style="rounded=1;whiteSpace=wrap;html=1;" vertex="1" parent="1">
          <mxGeometry x="270" y="-450" width="120" height="80" as="geometry" />
        </mxCell>
        <mxCell id="KhBLa0-ySH2mKtJyZSr1-11" value="&lt;font style=&quot;font-size: 18px;&quot;&gt;&amp;nbsp;END&amp;nbsp;&amp;nbsp;&lt;/font&gt;" style="rounded=1;whiteSpace=wrap;html=1;" vertex="1" parent="1">
          <mxGeometry x="390" y="-210" width="110" height="30" as="geometry" />
        </mxCell>
        <mxCell id="KhBLa0-ySH2mKtJyZSr1-12" value="&lt;font style=&quot;font-size: 18px;&quot;&gt;Monitor Threshold&lt;/font&gt;" style="rhombus;whiteSpace=wrap;html=1;" vertex="1" parent="1">
          <mxGeometry x="360" y="-700" width="130" height="110" as="geometry" />
        </mxCell>
        <mxCell id="V8CH2knuRj-ETvsuwdDs-1" value="" style="endArrow=classic;html=1;rounded=0;" edge="1" parent="1">
          <mxGeometry width="50" height="50" relative="1" as="geometry">
            <mxPoint x="424.5" y="-910" as="sourcePoint" />
            <mxPoint x="424.5" y="-890" as="targetPoint" />
          </mxGeometry>
        </mxCell>
        <mxCell id="V8CH2knuRj-ETvsuwdDs-3" value="" style="endArrow=classic;html=1;rounded=0;" edge="1" parent="1">
          <mxGeometry width="50" height="50" relative="1" as="geometry">
            <mxPoint x="424.5" y="-820" as="sourcePoint" />
            <mxPoint x="424.5" y="-800" as="targetPoint" />
          </mxGeometry>
        </mxCell>
        <mxCell id="V8CH2knuRj-ETvsuwdDs-4" value="" style="endArrow=classic;html=1;rounded=0;" edge="1" parent="1">
          <mxGeometry width="50" height="50" relative="1" as="geometry">
            <mxPoint x="424.5" y="-730" as="sourcePoint" />
            <mxPoint x="424.5" y="-710" as="targetPoint" />
          </mxGeometry>
        </mxCell>
        <mxCell id="V8CH2knuRj-ETvsuwdDs-5" value="" style="endArrow=classic;html=1;rounded=0;" edge="1" parent="1">
          <mxGeometry width="50" height="50" relative="1" as="geometry">
            <mxPoint x="329.5" y="-490" as="sourcePoint" />
            <mxPoint x="329.5" y="-470" as="targetPoint" />
          </mxGeometry>
        </mxCell>
        <mxCell id="V8CH2knuRj-ETvsuwdDs-6" value="" style="endArrow=classic;html=1;rounded=0;" edge="1" parent="1">
          <mxGeometry width="50" height="50" relative="1" as="geometry">
            <mxPoint x="189.5" y="-480" as="sourcePoint" />
            <mxPoint x="189.5" y="-460" as="targetPoint" />
          </mxGeometry>
        </mxCell>
        <mxCell id="V8CH2knuRj-ETvsuwdDs-8" value="" style="endArrow=classic;html=1;rounded=0;" edge="1" parent="1">
          <mxGeometry width="50" height="50" relative="1" as="geometry">
            <mxPoint x="445" y="-240" as="sourcePoint" />
            <mxPoint x="445" y="-220" as="targetPoint" />
          </mxGeometry>
        </mxCell>
        <mxCell id="V8CH2knuRj-ETvsuwdDs-10" value="" style="edgeStyle=segmentEdgeStyle;endArrow=classic;html=1;curved=0;rounded=0;endSize=8;startSize=8;" edge="1" parent="1">
          <mxGeometry width="50" height="50" relative="1" as="geometry">
            <mxPoint x="500" y="-650" as="sourcePoint" />
            <mxPoint x="570" y="-580" as="targetPoint" />
            <Array as="points">
              <mxPoint x="570" y="-650" />
            </Array>
          </mxGeometry>
        </mxCell>
        <mxCell id="V8CH2knuRj-ETvsuwdDs-11" value="" style="edgeStyle=segmentEdgeStyle;endArrow=classic;html=1;curved=0;rounded=0;endSize=8;startSize=8;" edge="1" parent="1">
          <mxGeometry width="50" height="50" relative="1" as="geometry">
            <mxPoint x="360" y="-640" as="sourcePoint" />
            <mxPoint x="315" y="-570" as="targetPoint" />
            <Array as="points">
              <mxPoint x="360" y="-650" />
              <mxPoint x="315" y="-650" />
            </Array>
          </mxGeometry>
        </mxCell>
        <mxCell id="V8CH2knuRj-ETvsuwdDs-12" value="" style="edgeStyle=segmentEdgeStyle;endArrow=classic;html=1;curved=0;rounded=0;endSize=8;startSize=8;" edge="1" parent="1">
          <mxGeometry width="50" height="50" relative="1" as="geometry">
            <mxPoint x="320" y="-650" as="sourcePoint" />
            <mxPoint x="200" y="-570" as="targetPoint" />
            <Array as="points">
              <mxPoint x="200" y="-650" />
            </Array>
          </mxGeometry>
        </mxCell>
        <mxCell id="V8CH2knuRj-ETvsuwdDs-13" value="" style="edgeStyle=segmentEdgeStyle;endArrow=classic;html=1;curved=0;rounded=0;endSize=8;startSize=8;" edge="1" parent="1">
          <mxGeometry width="50" height="50" relative="1" as="geometry">
            <mxPoint x="580" y="-470" as="sourcePoint" />
            <mxPoint x="510" y="-300" as="targetPoint" />
            <Array as="points">
              <mxPoint x="580" y="-410" />
              <mxPoint x="580" y="-300" />
            </Array>
          </mxGeometry>
        </mxCell>
        <mxCell id="V8CH2knuRj-ETvsuwdDs-14" value="" style="edgeStyle=segmentEdgeStyle;endArrow=classic;html=1;curved=0;rounded=0;endSize=8;startSize=8;" edge="1" parent="1">
          <mxGeometry width="50" height="50" relative="1" as="geometry">
            <mxPoint x="330" y="-360" as="sourcePoint" />
            <mxPoint x="385" y="-300" as="targetPoint" />
            <Array as="points">
              <mxPoint x="330" y="-350" />
              <mxPoint x="330" y="-300" />
            </Array>
          </mxGeometry>
        </mxCell>
        <mxCell id="V8CH2knuRj-ETvsuwdDs-15" value="&lt;font style=&quot;font-size: 18px;&quot;&gt;NO&lt;/font&gt;" style="text;html=1;align=center;verticalAlign=middle;resizable=0;points=[];autosize=1;strokeColor=none;fillColor=none;" vertex="1" parent="1">
          <mxGeometry x="285" y="-687" width="50" height="40" as="geometry" />
        </mxCell>
        <mxCell id="V8CH2knuRj-ETvsuwdDs-16" value="&lt;font style=&quot;font-size: 18px;&quot;&gt;YES&lt;/font&gt;" style="text;html=1;align=center;verticalAlign=middle;resizable=0;points=[];autosize=1;strokeColor=none;fillColor=none;" vertex="1" parent="1">
          <mxGeometry x="480" y="-687" width="60" height="40" as="geometry" />
        </mxCell>
        <mxCell id="V8CH2knuRj-ETvsuwdDs-17" value="" style="line;strokeWidth=2;html=1;" vertex="1" parent="1">
          <mxGeometry x="60" y="-980" width="700" height="10" as="geometry" />
        </mxCell>
        <mxCell id="V8CH2knuRj-ETvsuwdDs-18" value="" style="line;strokeWidth=2;direction=south;html=1;" vertex="1" parent="1">
          <mxGeometry x="60" y="-980" width="10" height="850" as="geometry" />
        </mxCell>
        <mxCell id="V8CH2knuRj-ETvsuwdDs-19" value="" style="line;strokeWidth=2;html=1;" vertex="1" parent="1">
          <mxGeometry x="60" y="-140" width="700" height="10" as="geometry" />
        </mxCell>
        <mxCell id="V8CH2knuRj-ETvsuwdDs-20" value="" style="line;strokeWidth=2;direction=south;html=1;" vertex="1" parent="1">
          <mxGeometry x="750" y="-980" width="10" height="850" as="geometry" />
        </mxCell>
      </root>
    </mxGraphModel>
  </diagram>
</mxfile>
